# AST/ASF file generated using VICON BodyLanguage
# -----------------------------------------------
:version 1.10
:name VICON
:units
  mass 1.0
  length 0.45
  angle deg
:documentation
   .ast/.asf automatically generated from VICON data using
   VICON BodyBuilder and BodyLanguage model FoxedUp or BRILLIANT.MOD
:root
   order TX TY TZ RX RY RZ
   axis XYZ
   position 0 0 0  
   orientation 0 0 0 
:bonedata
  begin
     id 1 
     name lhipjoint
     direction 0.661853 -0.702389 0.261917 
     length 2.64193 
     axis 0 0 0  XYZ
  end
  begin
     id 2 
     name lfemur
     direction 0.34202 -0.939693 0  
     length 7.01722  
     axis 0 0 20  XYZ
    dof rx ry rz
    limits (-160.0 20.0)
           (-70.0 70.0)
           (-60.0 70.0)
  end
  begin
     id 3 
     name ltibia
     direction 0.34202 -0.939693 0   
     length 8.25008   
     axis 0 0 20   XYZ
    dof rx
    limits (-10.0 170.0)
  end
  begin
     id 4 
     name lfoot
     direction 0.0709916 -0.195048 0.978221   
     length 2.31941   
     axis -90 7.62852e-016 20   XYZ
    dof rx rz
    limits (-45.0 90.0)
           (-70.0 20.0)
  end
  begin
     id 5 
     name ltoes
     direction 1.53586e-011 -4.22017e-011 1   
     length 1.16486   
     axis -90 7.62852e-016 20   XYZ
    dof rx
    limits (-90.0 20.0)
  end
  begin
     id 6 
     name rhipjoint
     direction -0.638185 -0.721362 0.268992   
     length 2.57244  
     axis 0 0 0  XYZ 
  end
  begin
     id 7 
     name rfemur
     direction -0.34202 -0.939693 0   
     length 7.07017   
     axis 0 0 -20   XYZ
    dof rx ry rz
    limits (-160.0 20.0)
           (-70.0 70.0)
           (-70.0 60.0)
  end
  begin
     id 8 
     name rtibia
     direction -0.34202 -0.939693 0   
     length 8.20386   
     axis 0 0 -20   XYZ
    dof rx
    limits (-10.0 170.0)
 end
 begin
     id 9 
     name rfoot
     direction -0.0822429 -0.225961 0.970658   
     length 2.32215  
     axis -90 -7.62852e-016 -20   XYZ
    dof rx rz
    limits (-45.0 90.0)
           (-20.0 70.0)
  end
  begin
     id 10 
     name rtoes
     direction -1.53597e-011 -4.21689e-011 1   
     length 1.16333   
     axis -90 -7.62852e-016 -20   XYZ
    dof rx
    limits (-90.0 20.0)
  end
  begin
     id 11 
     name lowerback
     direction -0.0131557 0.998589 -0.0514484   
     length 2.14993   
     axis 0 0 0   XYZ
    dof rx ry rz
    limits (-20.0 45.0)
           (-30.0 30.0)
           (-30.0 30.0)
  end
  begin
     id 12 
     name upperback
     direction -0.000776481 0.999993 0.00352685   
     length 2.15301   
     axis 0 0 0   XYZ
    dof rx ry rz
    limits (-20.0 45.0)
           (-30.0 30.0)
           (-30.0 30.0)
  end
  begin
     id 13 
     name thorax
     direction 0.00438186 0.999609 0.0276143   
     length 2.15424   
     axis 0 0 0   XYZ
    dof rx ry rz
    limits (-20.0 45.0)
           (-30.0 30.0)
           (-30.0 30.0)
  end
  begin
     id 14 
     name lowerneck
     direction -0.0488006 0.998094 0.0377807   
     length 1.90481   
     axis 0 0 0   XYZ
    dof rx ry rz
    limits (-20.0 45.0)
           (-30.0 30.0)
           (-30.0 30.0)
  end
  begin
     id 15 
     name upperneck
     direction 0.0443769 0.990702 -0.12861   
     length 1.91305   
     axis 0 0 0   XYZ
    dof rx ry rz
    limits (-20.0 45.0)
           (-30.0 30.0)
           (-30.0 30.0)
  end
  begin
     id 16
     name head
     direction 0.0165599 0.998647 -0.0492982  
     length 1.92369  
     axis 0 0 0   XYZ
    dof rx ry rz
    limits (-20.0 45.0)
           (-30.0 30.0)
           (-30.0 30.0)
  end
  begin
     id 17 
     name lclavicle
     direction 0.911936 0.410197 -0.0105506  
     length 3.52622  
     axis 0 0 0   XYZ
    dof ry rz
    limits (-20.0 10.0)
           (0.0 20.0)
  end
  begin
     id 18 
     name lhumerus
     direction 1 -4.48974e-011 -2.48591e-028   
     length 5.47651   
     axis 180 -30 -90   XYZ
    dof rx ry rz
    limits (-60.0 90.0)
           (-90.0 90.0)
           (-90.0 90.0)
  end
  begin
     id 19
     name lradius
     direction 1 -4.48938e-011 -4.40099e-027   
     length 3.09058   
     axis 180 -30 -90   XYZ
    dof rx
    limits (-10.0 170.0)
  end
  begin
     id 20
     name lwrist
     direction 1 -4.49042e-011 -2.99852e-027   
     length 1.54529   
     axis 1.95339e-015 90 90   XYZ
    dof ry
    limits (-180.0 0.0)
 end
  begin
     id 21 
     name lhand
     direction 1 -4.48815e-011 -5.98193e-027   
     length 0.771611   
     axis 3.82337e-015 90 90   XYZ
    dof rx rz
    limits (-90.0 90.0)
           (-45.0 45.0)
  end
  begin
     id 22 
     name lfingers
     direction 1 -4.49034e-011 -1.1993e-026   
     length 0.622093   
     axis 7.64668e-015 90 90   XYZ
    dof rx
    limits (0.0 90.0)
  end
  begin
     id 23
     name lthumb
     direction 0.707107 -6.34867e-011 0.707107   
     length 0.893204   
     axis -90 45 -1.62303e-014   XYZ
    dof rx rz
    limits (-45.0 45.0)
           (-45.0 45.0)
  end
  begin
     id 24 
     name rclavicle
     direction -0.93442 0.355634 -0.0195692   
     length 3.62463  
     axis 0 0 0   XYZ 
    dof ry rz
    limits (-10.0 20.0)
           (-20.0 0.0)
  end
  begin
     id 25 
     name rhumerus
     direction -1 -4.48957e-011 -1.19147e-027  
     length 5.14182   
     axis 180 30 90   XYZ
    dof rx ry rz
    limits (-90.0 60.0)
           (-90.0 90.0)
           (-90.0 90.0)
  end
  begin
     id 26 
     name rradius
     direction -1 -4.48952e-011 -3.81062e-027   
     length 3.35565   
     axis 180 30 90   XYZ
    dof rx
    limits (-10.0 170.0)
  end
  begin
     id 27 
     name rwrist
     direction -1 -4.48973e-011 -2.99621e-027   
     length 1.67782   
     axis 1.95339e-015 -90 -90   XYZ
    dof ry
    limits (-180.0 0.0)
  end
  begin
     id 28
     name rhand
     direction -1 -4.48895e-011 -5.98727e-027   
     length 0.801042   
     axis 3.82337e-015 -90 -90   XYZ
    dof rx rz
    limits (-90.0 90.0)
           (-45.0 45.0)
  end
  begin
     id 29
     name rfingers
     direction -1 -4.49065e-011 -1.19972e-026   
     length 0.645821   
     axis 7.64668e-015 -90 -90   XYZ
    dof rx
    limits (0.0 90.0)
  end
  begin
     id 30
     name rthumb
     direction -0.707107 -6.34957e-011 0.707107   
     length 0.927273   
     axis -90 -45 1.62303e-014   XYZ
    dof rx rz
    limits (-45.0 45.0)
           (-45.0 45.0)
  end
:hierarchy
  begin
    root lhipjoint rhipjoint lowerback
    lhipjoint lfemur
    lfemur ltibia
    ltibia lfoot
    lfoot ltoes
    rhipjoint rfemur
    rfemur rtibia
    rtibia rfoot
    rfoot rtoes
    lowerback upperback
    upperback thorax
    thorax lowerneck lclavicle rclavicle
    lowerneck upperneck
    upperneck head
    lclavicle lhumerus
    lhumerus lradius
    lradius lwrist
    lwrist lhand lthumb
    lhand lfingers
    rclavicle rhumerus
    rhumerus rradius
    rradius rwrist
    rwrist rhand rthumb
    rhand rfingers
  end

#!OML:ASF E:\Style4\Style4.ASF
:FULLY-SPECIFIED
:DEGREES
390
root -0.362454 17.7989 -2.11535 -0.757436 1.14377 1.61433
lowerback 6.33762 2.04578 -0.566864
upperback 2.65289 2.68724 -0.0917997
thorax -0.839808 1.33991 0.0368115
lowerneck -5.10241 -5.69277 -7.60064
upperneck 9.0089 -7.53007 5.63683
head 4.02606 -3.71167 2.54876
rclavicle -5.26779e-015 -3.97569e-015
rhumerus 41.661 62.0038 -16.5754
rradius 87.4413
rwrist -32.8077
rhand -8.60087 21.2501
rfingers 7.12502
rthumb 17.3306 -7.99722
lclavicle -5.26779e-015 -3.97569e-015
lhumerus 59.9341 -42.2095 19.1222
lradius 94.8409
lwrist 15.6497
lhand -19.1286 14.5347
lfingers 7.12502
lthumb 7.18105 44.3929
rfemur -11.9338 0.129779 17.9543
rtibia 31.6183
rfoot -17.4928 -15.893
rtoes -13.14
lfemur -10.2284 -4.41648 -19.5367
ltibia 29.1073
lfoot -17.885 8.52158
ltoes -15.213
391
root -0.362085 17.798 -2.11527 -0.757798 1.10517 1.64616
lowerback 6.37766 2.02529 -0.554835
upperback 2.6278 2.65984 -0.120398
thorax -0.885766 1.32647 0.000559934
lowerneck -5.1105 -5.6379 -7.56989
upperneck 9.06018 -7.44926 5.53115
head 4.03246 -3.67567 2.51609
rclavicle 8.77137e-015 -3.18055e-015
rhumerus 43.2679 62.8206 -14.8352
rradius 89.1577
rwrist -32.7012
rhand -7.40309 21.3667
rfingers 7.12502
rthumb 18.4831 -7.77518
lclavicle 8.77137e-015 -3.18055e-015
lhumerus 59.4629 -42.2881 19.5127
lradius 93.6078
lwrist 15.9332
lhand -19.7374 15.1407
lfingers 7.12502
lthumb 6.5933 45.0181
rfemur -11.9962 0.132335 17.9164
rtibia 31.7178
rfoot -17.5505 -15.8565
rtoes -12.9725
lfemur -10.2505 -4.40158 -19.5693
ltibia 29.1632
lfoot -17.9463 8.54358
ltoes -15.3634
392
root -0.360498 17.7959 -2.11651 -0.716036 0.947906 1.5827
lowerback 6.39434 2.05194 -0.456079
upperback 2.58556 2.70072 -0.122559
thorax -0.934027 1.34744 -0.0613514
lowerneck -5.11462 -5.59563 -7.52061
upperneck 9.10431 -7.38826 5.43716
head 4.03718 -3.64834 2.48296
rclavicle 7.20594e-016 -4.57205e-015
rhumerus 44.7991 63.4432 -13.1696
rradius 91.0002
rwrist -32.4945
rhand -6.07668 21.626
rfingers 7.12502
rthumb 19.7586 -7.38976
lclavicle 7.20594e-016 -4.57205e-015
lhumerus 59.1726 -42.4253 19.659
lradius 92.4449
lwrist 16.2048
lhand -20.3167 15.9196
lfingers 7.12502
lthumb 6.03404 45.8136
rfemur -12.1067 0.202392 17.9965
rtibia 31.8139
rfoot -17.542 -15.725
rtoes -12.6574
lfemur -10.3298 -4.31351 -19.4939
ltibia 29.2459
lfoot -17.9883 8.64616
ltoes -15.5456
393
root -0.35936 17.7958 -2.11948 -0.644034 0.736181 1.4232
lowerback 6.38221 2.06652 -0.244134
upperback 2.54272 2.73273 -0.109772
thorax -0.962226 1.36437 -0.169384
lowerneck -5.13933 -5.53407 -7.48245
upperneck 9.15552 -7.30233 5.37468
head 4.04747 -3.60733 2.46216
rclavicle 2.28105e-014 -7.35503e-015
rhumerus 46.4362 63.8712 -11.5474
rradius 92.8939
rwrist -32.3699
rhand -5.53894 21.7593
rfingers 7.12502
rthumb 20.2755 -7.2024
lclavicle 2.28105e-014 -7.35503e-015
lhumerus 58.903 -42.5545 19.7256
lradius 91.0399
lwrist 16.1557
lhand -20.2932 15.7622
lfingers 7.12502
lthumb 6.05679 45.6556
rfemur -12.2087 0.355218 18.1983
rtibia 31.8671
rfoot -17.5119 -15.5419
rtoes -11.8426
lfemur -10.4813 -4.19107 -19.303
ltibia 29.3748
lfoot -18.0496 8.65392
ltoes -15.3995
394
root -0.35774 17.7931 -2.12356 -0.716461 0.661754 1.35703
lowerback 6.50484 2.03494 -0.0942494
upperback 2.55796 2.69903 -0.122944
thorax -1.00704 1.3482 -0.268638
lowerneck -5.18032 -5.48006 -7.421
upperneck 9.21383 -7.22475 5.28338
head 4.06137 -3.57076 2.42781
rclavicle 1.70955e-014 1.15295e-014
rhumerus 47.8901 64.0428 -10.1922
rradius 94.8416
rwrist -32.3435
rhand -4.81474 22.2163
rfingers 7.12502
rthumb 20.9714 -6.66996
lclavicle 1.70955e-014 1.15295e-014
lhumerus 58.8438 -42.6993 19.5747
lradius 89.4588
lwrist 15.8769
lhand -19.663 15.1149
lfingers 7.12502
lthumb 6.66512 44.99
rfemur -12.1722 0.412465 18.2706
rtibia 31.8855
rfoot -17.535 -15.4951
rtoes -11.5626
lfemur -10.4815 -4.19919 -19.2417
ltibia 29.5086
lfoot -18.1333 8.68078
ltoes -15.2782
395
root -0.357382 17.7894 -2.12835 -0.771318 0.655718 1.32207
lowerback 6.59914 1.97147 -0.0251464
upperback 2.57052 2.61881 -0.108819
thorax -1.04426 1.30831 -0.290279
lowerneck -5.21818 -5.40885 -7.40826
upperneck 9.29465 -7.1227 5.21317
head 4.08268 -3.52292 2.40906
rclavicle 1.19519e-014 -1.53064e-014
rhumerus 49.33 63.9871 -8.95608
rradius 96.8385
rwrist -32.3691
rhand -4.00536 22.7318
rfingers 7.12502
rthumb 21.7488 -6.06631
lclavicle 1.19519e-014 -1.53064e-014
lhumerus 58.9331 -42.9845 19.1706
lradius 88.0153
lwrist 15.6002
lhand -18.8925 14.7689
lfingers 7.12502
lthumb 7.40896 44.6192
rfemur -12.1905 0.430138 18.2989
rtibia 31.8677
rfoot -17.5076 -15.6672
rtoes -12.5329
lfemur -10.4972 -4.19098 -19.2072
ltibia 29.6204
lfoot -18.1051 8.73911
ltoes -15.5996
396
root -0.357232 17.7873 -2.12993 -0.731373 0.580685 1.29096
lowerback 6.53881 1.94058 0.0548627
upperback 2.58259 2.58274 -0.109045
thorax -0.995004 1.29077 -0.329984
lowerneck -5.28033 -5.35595 -7.37307
upperneck 9.36647 -7.04581 5.14756
head 4.10634 -3.48613 2.386
rclavicle -1.32192e-014 2.5842e-015
rhumerus 50.3588 63.7029 -8.24009
rradius 98.8263
rwrist -32.512
rhand -3.27284 22.8739
rfingers 7.12502
rthumb 22.4521 -5.841
lclavicle -1.32192e-014 2.5842e-015
lhumerus 59.2801 -43.384 18.4252
lradius 86.6797
lwrist 15.3398
lhand -18.1553 14.3859
lfingers 7.12502
lthumb 8.12046 44.2098
rfemur -12.2682 0.479119 18.3354
rtibia 31.8409
rfoot -17.4781 -15.7465
rtoes -13.1453
lfemur -10.57 -4.11541 -19.1605
ltibia 29.6897
lfoot -18.1355 8.75003
ltoes -15.7071
397
root -0.35625 17.7864 -2.12924 -0.695515 0.484274 1.32331
lowerback 6.50728 1.93587 0.137355
upperback 2.56936 2.58039 -0.184081
thorax -0.984008 1.29032 -0.451922
lowerneck -5.31645 -5.3273 -7.21801
upperneck 9.46408 -7.01402 5.06973
head 4.13169 -3.46846 2.33777
rclavicle -5.36222e-014 -5.1684e-015
rhumerus 50.796 63.2582 -8.25842
rradius 100.81
rwrist -32.9627
rhand -2.29246 22.8736
rfingers 7.12502
rthumb 23.3929 -5.72465
lclavicle -5.36222e-014 -5.1684e-015
lhumerus 59.835 -43.8712 17.3824
lradius 85.4531
lwrist 14.9562
lhand -17.5624 14.305
lfingers 7.12502
lthumb 8.69267 44.1061
rfemur -12.3114 0.438341 18.2943
rtibia 31.833
rfoot -17.3946 -15.6872
rtoes -13.5907
lfemur -10.5999 -4.0384 -19.1951
ltibia 29.73
lfoot -18.2139 8.75267
ltoes -15.6542
398
root -0.355136 17.7857 -2.12977 -0.72506 0.387738 1.3554
lowerback 6.59661 1.91187 0.222005
upperback 2.53651 2.55233 -0.26499
thorax -1.06013 1.27669 -0.584286
lowerneck -5.32145 -5.27725 -7.09604
upperneck 9.6172 -6.9581 5.02755
head 4.16976 -3.43883 2.30755
rclavicle -3.66758e-014 1.86858e-014
rhumerus 51.0539 62.7169 -8.58333
rradius 102.879
rwrist -33.7851
rhand -1.40735 22.1187
rfingers 7.12502
rthumb 24.2417 -6.36893
lclavicle -3.66758e-014 1.86858e-014
lhumerus 60.4056 -44.4668 16.1865
lradius 84.3491
lwrist 14.305
lhand -17.2147 14.5355
lfingers 7.12502
lthumb 9.02819 44.3223
rfemur -12.314 0.415195 18.2505
rtibia 31.8629
rfoot -17.3669 -15.6063
rtoes -13.7398
lfemur -10.5382 -4.01446 -19.2353
ltibia 29.7289
lfoot -18.2323 8.80277
ltoes -15.7249
399
root -0.353498 17.7841 -2.13047 -0.739088 0.221924 1.41926
lowerback 6.74565 1.89339 0.268958
upperback 2.44427 2.52912 -0.350919
thorax -1.23198 1.26469 -0.704692
lowerneck -5.27757 -5.20822 -7.03103
upperneck 9.7848 -6.88015 5.03268
head 4.20646 -3.39877 2.30345
rclavicle -2.88238e-015 -1.35174e-014
rhumerus 51.2371 62.1731 -9.03547
rradius 104.781
rwrist -34.2775
rhand -1.24517 21.5979
rfingers 7.12502
rthumb 24.3972 -6.86884
lclavicle -2.88238e-015 -1.35174e-014
lhumerus 61.109 -45.2014 14.6807
lradius 83.3233
lwrist 13.3424
lhand -16.795 14.4889
lfingers 7.12502
lthumb 9.43317 44.2578
rfemur -12.346 0.49935 18.1787
rtibia 31.9032
rfoot -17.3401 -15.5532
rtoes -13.7738
lfemur -10.481 -3.9165 -19.3091
ltibia 29.6981
lfoot -18.2309 8.84679
ltoes -15.5761
400
root -0.349974 17.7838 -2.12917 -0.742303 0.0215824 1.45218
lowerback 6.88205 1.8903 0.371592
upperback 2.33511 2.53001 -0.436917
thorax -1.41155 1.26451 -0.858064
lowerneck -5.29321 -5.13992 -6.89715
upperneck 10.067 -6.80211 4.96999
head 4.2834 -3.35862 2.26507
rclavicle -4.18939e-014 5.96354e-016
rhumerus 51.168 61.5053 -9.84534
rradius 106.543
rwrist -35.0449
rhand -2.69281 22.5009
rfingers 7.12502
rthumb 23.0088 -6.14579
lclavicle -4.18939e-014 5.96354e-016
lhumerus 61.9736 -46.0095 12.9763
lradius 82.4605
lwrist 12.6371
lhand -16.4533 14.274
lfingers 7.12502
lthumb 9.76281 44.0277
rfemur -12.3933 0.562421 18.1242
rtibia 31.9473
rfoot -17.3632 -15.4072
rtoes -13.6406
lfemur -10.4093 -3.80829 -19.3636
ltibia 29.6471
lfoot -18.2511 8.94847
ltoes -15.4274
401
root -0.347174 17.7845 -2.127 -0.743727 -0.140793 1.48476
lowerback 7.04127 1.86277 0.443346
upperback 2.21121 2.49686 -0.504379
thorax -1.62186 1.24666 -0.973702
lowerneck -5.3108 -5.06299 -6.80258
upperneck 10.3519 -6.71398 4.95392
head 4.36399 -3.31247 2.24791
rclavicle 1.17034e-014 -1.48095e-014
rhumerus 50.9899 60.7414 -10.8163
rradius 108.188
rwrist -36.2647
rhand -3.41838 22.6004
rfingers 7.12502
rthumb 22.3124 -6.13135
lclavicle 1.17034e-014 -1.48095e-014
lhumerus 62.7741 -46.8627 11.3413
lradius 81.9025
lwrist 12.3902
lhand -16.3799 14.3944
lfingers 7.12502
lthumb 9.83366 44.1448
rfemur -12.4476 0.651993 18.0745
rtibia 32.0156
rfoot -17.4593 -15.2931
rtoes -13.5454
lfemur -10.3314 -3.77272 -19.4173
ltibia 29.5693
lfoot -18.2731 9.07838
ltoes -15.507
